<svg width="100" height="100" viewBox="0 0 100 100" fill="none" xmlns="http://www.w3.org/2000/svg">
<rect width="100" height="100" rx="50" fill="white"/>
<path fill-rule="evenodd" clip-rule="evenodd" d="M42.6841 23.127H53.8655L46.666 34.939H48.8893L56.0229 23.127H67.5687L60.4351 34.7071H68L64.8816 40.4466H56.8855L63.1231 48.4419H51.5763L45.8034 40.4466H43.5801L49.3206 48.4419H38.2385L32 40.0153L42.6841 23.127Z" fill="#1D3B75"/>
<path fill-rule="evenodd" clip-rule="evenodd" d="M17 74.2817H18.8947V70.565H22.3819V74.2817H24.2766V65.666H22.3819V68.9724H18.8947V65.666H17V74.2817ZM28.8764 71.8683C28.8764 72.2429 28.8284 73.304 27.4888 73.304C26.9337 73.304 26.439 73.1481 26.439 72.5082C26.439 71.881 26.922 71.7001 27.453 71.5908C27.984 71.4942 28.5871 71.4824 28.8764 71.2289V71.8683ZM26.6322 69.9614C26.6925 69.2862 27.1147 69.0204 27.7663 69.0204C28.3694 69.0204 28.8764 69.1293 28.8764 69.8648C28.8764 70.565 27.8992 70.5287 26.8494 70.6856C25.7873 70.8302 24.7253 71.1681 24.7253 72.5807C24.7253 73.859 25.6667 74.4499 26.8494 74.4499C27.6094 74.4499 28.4057 74.2449 28.949 73.6781C28.9608 73.8831 29.0093 74.088 29.0696 74.2812H30.8074C30.6505 74.0282 30.5902 73.4604 30.5902 72.8936V69.648C30.5902 68.1515 29.0937 67.874 27.8512 67.874C26.4512 67.874 25.015 68.3565 24.9189 69.9614H26.6322ZM31.1482 76.4775H32.8614V73.5094H32.8854C33.2959 74.1243 34.0078 74.4499 34.7556 74.4499C36.5782 74.4499 37.4946 72.8936 37.4946 71.2284C37.4946 69.4548 36.6135 67.874 34.659 67.874C33.8867 67.874 33.211 68.1756 32.8006 68.8395H32.7766V68.0427H31.1482V76.4775ZM34.2976 73.1593C33.1875 73.1593 32.8011 72.1939 32.8011 71.1808C32.8011 70.1668 33.163 69.1655 34.2853 69.1655C35.3837 69.1655 35.7819 70.1918 35.7819 71.1808C35.7819 72.1939 35.42 73.1593 34.2976 73.1593ZM41.8753 71.8683C41.8753 72.2429 41.8272 73.304 40.4876 73.304C39.933 73.304 39.4378 73.1481 39.4378 72.5082C39.4378 71.881 39.9203 71.7001 40.4508 71.5908C40.9824 71.4942 41.5855 71.4824 41.8748 71.2289L41.8753 71.8683ZM39.6315 69.9614C39.6918 69.2862 40.114 69.0204 40.7652 69.0204C41.3683 69.0204 41.8753 69.1293 41.8753 69.8648C41.8753 70.565 40.8985 70.5287 39.8477 70.6856C38.7857 70.8302 37.7246 71.1681 37.7246 72.5807C37.7246 73.859 38.666 74.4499 39.8477 74.4499C40.6082 74.4499 41.405 74.2449 41.9478 73.6781C41.9591 73.8831 42.0082 74.088 42.0685 74.2812H43.8057C43.6488 74.0282 43.5895 73.4604 43.5895 72.8936V69.648C43.5895 68.1515 42.0925 67.874 40.8495 67.874C39.4496 67.874 38.0139 68.3565 37.9173 69.9614H39.6315ZM50.3856 68.0432H48.7567V68.8758H48.7326C48.3217 68.1515 47.6946 67.8745 46.8738 67.8745C45.1242 67.8745 44.1951 69.3465 44.1951 70.9636C44.1951 72.6768 44.9918 74.1008 46.862 74.1008C47.6098 74.1008 48.358 73.7875 48.7321 73.1353H48.7562V73.9561C48.7684 74.8485 48.334 75.5007 47.3808 75.5007C46.7777 75.5007 46.2584 75.2835 46.1015 74.6436H44.4005C44.4839 76.0675 45.9206 76.6471 47.1508 76.6471C50.0227 76.6471 50.3851 74.9089 50.3851 73.8831V68.0432H50.3856ZM47.2959 72.8097C46.2461 72.8097 45.9083 71.832 45.9083 70.9396C45.9083 70.0104 46.3305 69.1655 47.2959 69.1655C48.407 69.1655 48.7567 70.0712 48.7567 71.0842C48.7567 71.9776 48.2737 72.8097 47.2959 72.8097ZM50.8558 71.7236H54.4882V70.2516H50.8558V71.7236ZM54.9496 74.2817H61.0435V72.6891H56.8443V65.666H54.9496V74.2817ZM61.4431 74.2817H63.1564V65.666H61.4431V74.2817ZM63.5442 71.1681C63.5442 73.1476 64.8113 74.4499 66.7657 74.4499C68.733 74.4499 70 73.1476 70 71.1681C70 69.1773 68.733 67.874 66.7657 67.874C64.8113 67.8745 63.5442 69.1773 63.5442 71.1681ZM65.2575 71.1681C65.2575 70.1663 65.6071 69.1651 66.7657 69.1651C67.9362 69.1651 68.2868 70.1663 68.2868 71.1681C68.2868 72.1576 67.9362 73.1593 66.7657 73.1593C65.6071 73.1593 65.2575 72.1576 65.2575 71.1681Z" fill="black"/>
<path fill-rule="evenodd" clip-rule="evenodd" d="M76.7753 67.9549H74.899L73.4571 72.4713H73.4317L71.9391 67.9549H70L72.3222 74.1433C72.527 74.667 72.3222 75.3171 71.6974 75.3809C71.3402 75.3939 70.9825 75.3425 70.6382 75.3171V76.8098C71.0079 76.8482 71.3776 76.8736 71.7483 76.8736C72.9988 76.8736 73.6236 76.4401 74.0197 75.3809L76.7753 67.9549ZM81.2777 74.5514H83V65.4414H81.1885V68.7585H81.162H81.175C80.754 68.1079 79.9882 67.7761 79.2105 67.7761C77.2704 67.7761 76.2879 69.4222 76.2879 71.1953C76.2879 73.0203 77.258 74.7292 79.2479 74.7292C80.0904 74.7292 80.8307 74.4233 81.2517 73.7083H81.2771V74.5514H81.2777ZM81.2523 71.2337C81.2523 72.3183 80.895 73.3641 79.6948 73.3641C78.5718 73.3641 78.1 72.2794 78.1 71.2467C78.1 70.162 78.5091 69.1407 79.6948 69.1407C80.8691 69.1412 81.2523 70.1626 81.2523 71.2337Z" fill="black"/>
</svg>
