<?xml version="1.0" encoding="utf-8"?>
<!-- Generator: Adobe Illustrator 27.3.1, SVG Export Plug-In . SVG Version: 6.00 Build 0)  -->
<svg version="1.1" id="Layer_1" xmlns="http://www.w3.org/2000/svg" xmlns:xlink="http://www.w3.org/1999/xlink" x="0px" y="0px"
	 viewBox="0 0 387.1 119.7" style="enable-background:new 0 0 387.1 119.7;" xml:space="preserve">
<style type="text/css">
	.st0{fill:none;}
	.st1{fill:#EEAA1F;}
	.st2{fill:#2C398F;}
	.st3{fill:#2E6D8D;}
	.st4{fill:#FFFFFF;}
	.st5{enable-background:new    ;}
</style>
<g>
	<g>
		<path class="st0" d="M133.9,30.2l-0.1-0.1C133.8,30.1,133.9,30.1,133.9,30.2z"/>
		<path class="st0" d="M133.7,30l-0.1-0.1C133.6,29.9,133.7,29.9,133.7,30z"/>
		<path class="st0" d="M133.6,29.8c0,0,0-0.1-0.1-0.1C133.5,29.7,133.5,29.7,133.6,29.8z"/>
		<path class="st0" d="M133.5,29.5v-0.1C133.4,29.4,133.4,29.5,133.5,29.5z"/>
		<path class="st0" d="M134.1,30.3c0,0-0.1,0-0.1-0.1C134,30.3,134.1,30.3,134.1,30.3z"/>
		<path class="st0" d="M134.3,92.8c-0.1,0-0.1,0-0.2-0.1C134.2,92.7,134.2,92.8,134.3,92.8z"/>
		<path class="st0" d="M30.6,89.2L30.6,89.2c0.7,0,1.3,0.6,1.3,1.4v0.9c0,0.7-0.6,1.3-1.3,1.3l0,0h-0.1h0.1c0.7,0,1.4-0.6,1.4-1.4
			v-0.8l0,0C31.9,89.8,31.3,89.2,30.6,89.2z"/>
		<path class="st0" d="M30.5,30.4L30.5,30.4c-0.7,0-1.3-0.6-1.3-1.4v-0.9c0-0.6,0.4-1.2,1.1-1.3c-0.6,0.1-1.1,0.7-1.1,1.3V29l0,0
			C29.2,29.8,29.8,30.4,30.5,30.4z"/>
		<path class="st0" d="M135.4,30.3c0,0-0.1,0-0.1,0.1C135.3,30.3,135.3,30.3,135.4,30.3z"/>
		<polygon class="st0" points="116.9,69 116.9,69 116.7,49.7 116.7,49.8 		"/>
		<polygon class="st0" points="99.8,40.4 116.9,30.4 116.9,30.3 99.8,40.2 83.2,50.1 83.4,50.1 		"/>
		<rect x="83.2" y="92.8" class="st0" width="48.8" height="0.1"/>
		<polygon class="st0" points="73.8,45.2 65.4,40.3 48.4,30.4 65.4,40.4 		"/>
		<polygon class="st0" points="91.1,56.8 99.4,61.4 99.4,61.4 108.1,66.2 116.8,71 116.8,70.9 108.1,66.1 99.4,61.3 99.4,61.2 
			91.1,56.7 83.2,52.3 83.2,52.4 		"/>
		<rect x="132" y="88.2" class="st0" width="4.5" height="0.1"/>
		<polygon class="st0" points="48.4,69.1 82.1,50.2 82,50.1 		"/>
		<path class="st0" d="M133.5,90c0,0,0-0.1,0.1-0.1C133.6,89.9,133.6,89.9,133.5,90z"/>
		<path class="st0" d="M135.9,29.8c0,0,0,0.1-0.1,0.1C135.9,29.8,135.9,29.8,135.9,29.8z"/>
		<path class="st0" d="M134.7,92.9L134.7,92.9h-0.1C134.7,92.8,134.7,92.9,134.7,92.9c0.7,0,1.3-0.6,1.3-1.3
			C136.1,92.2,135.5,92.8,134.7,92.9z"/>
		<path class="st0" d="M135.8,89.7l0.1,0.1C135.8,89.8,135.8,89.8,135.8,89.7z"/>
		<path class="st0" d="M133.7,92.4l0.1,0.1C133.8,92.5,133.8,92.4,133.7,92.4z"/>
		<path class="st0" d="M134.7,89.2h-0.1C134.6,89.3,134.7,89.2,134.7,89.2L134.7,89.2z"/>
		<path class="st0" d="M135.4,89.4c0,0,0.1,0,0.1,0.1C135.5,89.4,135.4,89.4,135.4,89.4z"/>
		<path class="st0" d="M134.1,89.4c0,0,0.1,0,0.1-0.1C134.2,89.4,134.1,89.4,134.1,89.4z"/>
		<path class="st0" d="M135.6,89.5l0.1,0.1C135.7,89.6,135.6,89.6,135.6,89.5z"/>
		<path class="st0" d="M133.9,89.6l0.1-0.1C133.9,89.5,133.9,89.5,133.9,89.6z"/>
		<path class="st0" d="M135.9,89.9c0,0,0,0.1,0.1,0.1C136,90,135.9,90,135.9,89.9z"/>
		<path class="st0" d="M136,90.2L136,90.2C136.1,90.3,136,90.2,136,90.2z"/>
		<path class="st0" d="M133.7,89.7l0.1-0.1C133.7,89.7,133.7,89.7,133.7,89.7z"/>
		<path class="st0" d="M30.5,92.9c0.7,0,1.3-0.6,1.3-1.3v-1c0-0.7-0.6-1.3-1.3-1.4c-0.7,0-1.3,0.6-1.3,1.4v0.9c0,0.6,0.3,1,0.8,1.2
			l0,0C30.2,92.8,30.3,92.8,30.5,92.9C30.5,92.8,30.5,92.9,30.5,92.9L30.5,92.9z"/>
		<path class="st0" d="M136.1,90.3L136.1,90.3v-0.2c0,0,0-0.1-0.1-0.1c0,0,0-0.1-0.1-0.1l-0.1-0.1c0,0,0-0.1-0.1-0.1l-0.1-0.1
			l-0.1-0.1c0,0-0.1,0-0.1-0.1c0,0-0.1,0-0.1-0.1h-0.1h-0.1H135h-0.1h-0.1h-0.1h-0.1h-0.1c0,0-0.1,0-0.1,0.1c0,0-0.1,0-0.1,0.1
			l-0.1,0.1c0,0-0.1,0-0.1,0.1l-0.1,0.1l-0.1,0.1c0,0,0,0.1-0.1,0.1c0,0,0,0.1-0.1,0.1v0.1v0.1v0.1v0.1v0.9c0,0.2,0,0.3,0.1,0.5
			c0,0,0,0,0,0.1c0.1,0.1,0.1,0.2,0.2,0.3l0.1,0.1c0.1,0.1,0.2,0.1,0.3,0.2c0.1,0,0.1,0.1,0.2,0.1c0.1,0,0.2,0.1,0.3,0.1h0.1l0,0
			c0.7,0,1.3-0.6,1.3-1.3v-0.9v-0.1C136.1,90.4,136.1,90.4,136.1,90.3z"/>
		<polygon class="st0" points="82.1,50.2 82.1,52.2 82.4,52 82.4,52 82.5,52 83.2,52.4 83.2,52.3 83.2,50.2 83.2,50.2 83.2,50.1 
			83.2,26.8 82.1,26.8 82.1,50.1 		"/>
		<path class="st0" d="M29.2,28.2v0.9c0,0.7,0.6,1.3,1.3,1.4c0.7,0,1.3-0.6,1.3-1.4v-0.9c0-0.6-0.4-1.2-1.1-1.3h-0.3h-0.3
			C29.6,27,29.2,27.5,29.2,28.2z"/>
		<polygon class="st0" points="83.2,70.7 82.5,71.1 82.4,71.1 82.1,70.9 82.1,92.9 83.2,92.9 83.2,92.8 		"/>
		<path class="st0" d="M133.4,29.4v0.1v0.1c0,0,0,0.1,0.1,0.1c0,0,0,0.1,0.1,0.1l0.1,0.1c0,0,0,0.1,0.1,0.1l0.1,0.1l0.1,0.1
			c0,0,0.1,0,0.1,0.1c0,0,0.1,0,0.1,0.1h0.1h0.1h0.1h0.1h0.1h0.1h0.1h0.1c0,0,0.1,0,0.1-0.1c0,0,0.1,0,0.1-0.1l0.1-0.1l0.1-0.1
			l0.1-0.1l0.1-0.1c0,0,0-0.1,0.1-0.1c0,0,0-0.1,0.1-0.1v-0.1v-0.1v-0.1v-0.1v-0.9l0,0c0-0.7-0.6-1.3-1.4-1.3
			c-0.7,0-1.2,0.5-1.3,1.1l0,0c0,0.1,0,0.2,0,0.3v0.9v0.1C133.4,29.3,133.4,29.3,133.4,29.4z"/>
		<polygon class="st1" points="82,50.1 82.1,50.2 82.1,50.1 		"/>
		<polygon class="st1" points="73.9,66.4 65.7,61.9 65.7,65.4 65.7,80.6 57,85.4 48.2,90.2 48.2,71 57,66.1 65.4,61.5 65.7,61.3 
			73.8,56.8 82.1,52.2 82.1,50.2 48.4,69.1 48.6,49.8 48.4,30.4 65.4,40.3 73.8,45.2 82.1,50.1 82.1,26.8 33.3,26.8 33.3,31.3 
			28.7,31.3 29.1,88.3 33.3,88.3 33.3,92.9 82.1,92.9 82.1,70.9 		"/>
		<polygon class="st2" points="83.2,50.2 83.4,50.1 83.2,50.1 		"/>
		<polygon class="st2" points="132,31.3 132,26.8 83.2,26.8 83.2,50.1 99.8,40.2 116.9,30.3 116.9,30.4 116.9,30.4 116.7,49.7 
			116.9,69 116.9,69 116.9,69.2 83.2,50.2 83.2,52.3 91.1,56.7 99.4,61.2 99.4,61.3 108.1,66.1 116.8,70.9 116.8,71 116.8,90.1 
			116.8,90.2 108.1,85.4 99.4,80.6 99.4,80.5 99.4,61.9 99.4,61.9 91.1,66.4 83.2,70.7 83.2,92.8 132,92.8 132,88.3 132,88.2 
			136.5,88.2 136.5,31.4 132,31.4 		"/>
		<polygon class="st3" points="82.1,26.8 83.2,26.8 83.2,26.7 132,26.7 132,26 83.2,26 82.1,26 33.3,26 33.3,26.8 		"/>
		<rect x="83.2" y="26.7" class="st3" width="48.8" height="0.1"/>
		<polygon class="st3" points="28.7,31.3 27.8,31.3 27.8,88.3 29.1,88.3 		"/>
		<polygon class="st3" points="83.2,92.9 82.1,92.9 33.3,92.9 33.3,93.8 83.2,93.8 132,93.8 132,92.9 		"/>
		<polygon class="st3" points="136.5,31.4 136.5,88.2 136.5,88.3 137.4,88.3 137.4,31.4 		"/>
		<polygon class="st4" points="82.4,52 82.1,52.2 73.8,56.8 65.7,61.3 65.7,61.9 73.9,66.4 82.1,70.9 82.4,71.1 		"/>
		<polygon class="st4" points="65.4,61.5 57,66.1 48.2,71 48.2,90.2 57,85.4 65.7,80.6 65.7,65.4 65.7,61.9 65.7,61.3 		"/>
		<polygon class="st4" points="99.4,61.4 99.4,61.4 99.4,61.8 99.4,61.8 99.4,61.9 99.4,80.5 108.1,85.3 116.8,90.1 116.8,71 
			108.1,66.2 		"/>
		<polygon class="st4" points="99.4,80.5 99.4,80.6 108.1,85.4 116.8,90.2 116.8,90.1 108.1,85.3 		"/>
		<polygon class="st4" points="91.1,66.3 99.4,61.8 99.4,61.4 91.1,56.8 83.2,52.4 82.5,52 82.4,52 82.4,71.1 82.5,71.1 83.2,70.7 
			83.2,70.6 		"/>
		<polygon class="st4" points="91.1,66.3 83.2,70.6 83.2,70.7 91.1,66.4 99.4,61.9 99.4,61.8 		"/>
		<path class="st4" d="M83.4,50.1L117,68.9l-0.2-19.2v-0.1l0,0l0.2-19.2l-17,9.9L83.4,50.1z M98.2,55.2L98.2,55.2L98.2,55.2
			L98.2,55.2L98.2,55.2z M98.3,55.2L98.3,55.2L98.3,55.2L98.3,55.2L98.3,55.2L98.3,55.2z"/>
		<polygon class="st4" points="83.2,50.2 116.9,69.2 116.9,69 83.4,50.1 		"/>
		<polygon class="st4" points="116.7,49.7 116.9,30.4 116.9,30.4 		"/>
		<path class="st4" d="M73.8,45.2l-8.3-4.9l-17-9.9l0.2,19.3L48.5,69l33.7-19L73.8,45.2z M67,55.2L67,55.2L67,55.2L67,55.2L67,55.2
			L67,55.2z M67.1,55.2L67.1,55.2L67.1,55.2L67.1,55.2L67.1,55.2L67.1,55.2z"/>
		<polygon class="st4" points="82.1,50.1 73.8,45.2 82,50.1 		"/>
		<path d="M33.3,31.3v-4.5v-0.9l0,0h-5.4v5.4h0.9H33.3z M29.2,29.1v-0.9c0-0.6,0.5-1.2,1.1-1.3h0.3h0.3l0,0c0.6,0.1,1.1,0.7,1.1,1.3
			v0.9l0,0c0,0.7-0.6,1.4-1.4,1.4l0,0l0,0C29.8,30.4,29.2,29.8,29.2,29.1L29.2,29.1z"/>
		<path d="M31.9,28.2v0.9c0,0.7-0.6,1.3-1.3,1.4l0,0c0.7,0,1.4-0.6,1.4-1.4l0,0L31.9,28.2c0-0.6-0.4-1.2-1-1.3l0,0
			C31.5,27,31.9,27.5,31.9,28.2z"/>
		<path d="M132,26.8v4.4h4.5v0.1h0.9l0,0v-5.4H132l0,0V26.8L132,26.8z M133.4,29.1v-0.9l0,0c0-0.1,0-0.2,0-0.2l0,0
			c0.1-0.6,0.7-1.1,1.3-1.1l0,0c0.7,0,1.3,0.6,1.3,1.3l0,0l0,0v0.9l0,0v0.1v0.1v0.1v0.1c0,0,0,0.1-0.1,0.1c0,0,0,0.1-0.1,0.1
			l-0.1,0.1c0,0,0,0.1-0.1,0.1l-0.1,0.1l-0.1,0.1c0,0-0.1,0-0.1,0.1c0,0-0.1,0-0.1,0.1h-0.1H135h-0.1h-0.1l0,0l0,0h-0.1h-0.1h-0.1
			h-0.1c0,0-0.1,0-0.1-0.1c0,0-0.1,0-0.1-0.1c0,0-0.1,0-0.1-0.1l-0.1-0.1c0,0,0-0.1-0.1-0.1l-0.1-0.1c0,0,0-0.1-0.1-0.1
			c0,0,0-0.1-0.1-0.1v-0.1v-0.1v-0.1C133.4,29.2,133.4,29.2,133.4,29.1L133.4,29.1z"/>
		<path d="M133.8,30.1C133.8,30,133.7,30,133.8,30.1C133.7,30,133.8,30,133.8,30.1z"/>
		<path d="M133.6,29.9c0,0,0-0.1-0.1-0.1C133.6,29.8,133.6,29.8,133.6,29.9z"/>
		<path d="M134.2,30.4c0,0-0.1,0-0.1-0.1C134.1,30.3,134.2,30.3,134.2,30.4z"/>
		<path d="M135.5,30.2c0,0-0.1,0-0.1,0.1C135.4,30.3,135.5,30.3,135.5,30.2z"/>
		<path d="M134.7,26.9c0.7,0,1.3,0.6,1.4,1.3C136.1,27.5,135.5,26.9,134.7,26.9L134.7,26.9c-0.6,0-1.2,0.5-1.3,1.1
			C133.5,27.3,134.1,26.9,134.7,26.9z"/>
		<path d="M136,29.6c0,0,0,0.1-0.1,0.1C135.9,29.7,136,29.7,136,29.6z"/>
		<path d="M136.1,29.4v0.1C136,29.5,136.1,29.4,136.1,29.4z"/>
		<path d="M135.7,30.1l-0.1,0.1C135.6,30.1,135.7,30.1,135.7,30.1z"/>
		<path d="M135.9,29.9l-0.1,0.1C135.8,29.9,135.8,29.9,135.9,29.9z"/>
		<rect x="132" y="31.3" width="4.5" height="0.1"/>
		<path d="M132,88.3v4.5v0.1v0.9h5.4v-5.4l0,0h-0.9L132,88.3L132,88.3z M136.1,90.6v0.9c0,0.7-0.6,1.4-1.4,1.4h-0.1
			c-0.1,0-0.2,0-0.3-0.1c-0.1,0-0.1,0-0.2-0.1c-0.1-0.1-0.2-0.1-0.3-0.2l-0.1-0.1c-0.1-0.1-0.2-0.2-0.2-0.3c0,0,0,0,0-0.1
			c-0.1-0.2-0.1-0.3-0.1-0.5v-0.9l0,0v-0.1v-0.1v-0.1v-0.1c0,0,0-0.1,0.1-0.1c0,0,0-0.1,0.1-0.1l0.1-0.1l0.1-0.1l0.1-0.1l0.1-0.1
			c0,0,0.1,0,0.1-0.1c0,0,0.1,0,0.1-0.1h0.1h0.1h0.1h0.1l0,0l0,0h0.1h0.1h0.1h0.1c0,0,0.1,0,0.1,0.1c0,0,0.1,0,0.1,0.1
			c0,0,0.1,0,0.1,0.1l0.1,0.1c0,0,0,0.1,0.1,0.1l0.1,0.1c0,0,0,0.1,0.1,0.1c0,0,0,0.1,0.1,0.1v0.1v0.1v0.1
			C136.1,90.5,136.1,90.5,136.1,90.6L136.1,90.6z"/>
		<path d="M134,89.5c0,0,0.1,0,0.1-0.1L134,89.5z"/>
		<path d="M134.6,92.8c-0.1,0-0.2,0-0.3-0.1C134.4,92.8,134.5,92.8,134.6,92.8z"/>
		<path d="M134.1,92.7c-0.1-0.1-0.2-0.1-0.3-0.2C133.9,92.6,134,92.6,134.1,92.7z"/>
		<path d="M133.5,92c-0.1-0.2-0.1-0.3-0.1-0.5C133.4,91.7,133.4,91.8,133.5,92z"/>
		<path d="M133.7,92.4c-0.1-0.1-0.2-0.2-0.2-0.3C133.6,92.2,133.6,92.3,133.7,92.4z"/>
		<path d="M135.3,89.3c0,0,0.1,0,0.1,0.1C135.3,89.4,135.3,89.4,135.3,89.3z"/>
		<path d="M133.5,90.1c0,0,0-0.1,0.1-0.1C133.5,90,133.5,90,133.5,90.1z"/>
		<path d="M135.9,89.8c0,0,0,0.1,0.1,0.1C135.9,89.9,135.9,89.9,135.9,89.8z"/>
		<path d="M134.7,89.2L134.7,89.2h0.1C134.8,89.3,134.8,89.2,134.7,89.2z"/>
		<path d="M33.3,88.3h-4.2h-1.3v5.4h5.4v-0.9L33.3,88.3L33.3,88.3z M31.9,90.6v0.9c0,0.7-0.6,1.4-1.4,1.4h-0.1c-0.1,0-0.3,0-0.4-0.1
			l0,0c-0.5-0.2-0.8-0.7-0.8-1.2v-1l0,0c0-0.7,0.6-1.4,1.4-1.4l0,0l0,0C31.3,89.2,31.9,89.8,31.9,90.6L31.9,90.6z"/>
		<path d="M29.2,91.5v-0.9c0-0.7,0.6-1.3,1.3-1.4l0,0c-0.7,0-1.4,0.6-1.4,1.4l0,0L29.2,91.5c0,0.6,0.3,1,0.8,1.2
			C29.5,92.5,29.2,92.1,29.2,91.5z"/>
		<path d="M30.5,92.8c-0.1,0-0.3,0-0.4-0.1C30.2,92.8,30.3,92.8,30.5,92.8z"/>
	</g>
	<g>
		<path class="st2" d="M183.3,69.2h-8v-5.9l0.8-15.9l-7.2,21.8h-5.2l-7.2-21.8l0.8,15.9v5.9h-8V37.9h10.6l6.5,20.8l6.5-20.8h10.6
			L183.3,69.2z"/>
		<path class="st2" d="M205.7,64h-10.1l-1.6,5.2h-8.7l11.4-31.3h7.6l11.5,31.3h-8.7L205.7,64z M203.7,57.5l-3.1-9.9l-3,9.9H203.7z"
			/>
		<path class="st2" d="M235.8,64h-10.1l-1.6,5.2h-8.7L227,37.9h7.6l11.5,31.3h-8.7L235.8,64z M233.8,57.5l-3.1-9.9l-3,9.9H233.8z"/>
		<path class="st2" d="M270.2,44.4h-9.3v24.8h-8V44.4h-9.1v-6.5h26.5v6.5H270.2z"/>
		<path class="st2" d="M278.1,54.3c-1.5-0.8-2.7-1.9-3.7-3.2c-1-1.4-1.5-3-1.5-4.7s0.5-3.4,1.6-4.7c1.2-1.4,2.7-2.5,4.4-3.1
			c2-0.7,4.2-1.1,6.3-1.1c2.1,0,4.2,0.4,6.1,1.2c1.7,0.7,3.1,1.9,4.2,3.4c1,1.6,1.6,3.4,1.5,5.3h-8c0-0.9-0.3-1.8-1-2.5
			c-0.8-0.7-1.9-1-3-0.9c-0.8,0-1.5,0.1-2.2,0.4c-0.5,0.2-1,0.5-1.4,1c-0.3,0.4-0.5,0.8-0.5,1.3c0.1,0.9,0.6,1.6,1.4,2
			c1.3,0.7,2.7,1.3,4.2,1.8c2.9,0.8,5.6,2.2,7.8,4.2c1.7,1.6,2.7,3.9,2.6,6.3c0,1.7-0.5,3.4-1.4,4.8c-1,1.4-2.4,2.4-4.1,3
			c-2,0.7-4.1,1.1-6.2,1c-2.2,0-4.4-0.4-6.5-1.1c-2-0.7-3.7-2-5-3.6c-1.3-1.8-2-4-1.9-6.2h8.1c0,1,0.1,1.9,0.6,2.8
			c0.4,0.7,1,1.2,1.7,1.4c0.9,0.3,1.9,0.5,2.9,0.4c1,0.1,2-0.2,2.8-0.7c0.6-0.4,0.9-1.1,0.9-1.8c0-0.5-0.1-1.1-0.4-1.6
			c-0.4-0.5-0.9-1-1.5-1.2c-1.1-0.6-2.2-1-3.4-1.4C281.6,56,279.8,55.2,278.1,54.3z"/>
		<path class="st2" d="M325.7,62.4c-1.1,2.2-2.8,4.1-4.9,5.4c-4.5,2.5-9.9,2.5-14.4,0c-2.1-1.3-3.9-3.2-5-5.4
			c-1.2-2.6-1.8-5.4-1.7-8.2v-1.1c-0.1-2.8,0.5-5.7,1.7-8.2c1.1-2.2,2.8-4.1,4.9-5.4c4.5-2.5,9.9-2.5,14.4,0c2.1,1.3,3.9,3.2,5,5.4
			c1.2,2.6,1.8,5.4,1.7,8.2v1.1C327.5,57,326.9,59.8,325.7,62.4z M317.8,46.3c-0.9-1.5-2.5-2.4-4.2-2.3c-3.8,0-5.7,3-5.7,8.9v1.2
			c-0.1,2.3,0.4,4.6,1.4,6.6c1.4,2.3,4.5,3.1,6.8,1.6c0.7-0.4,1.2-1,1.6-1.6c1.1-2,1.6-4.3,1.5-6.6v-1.2
			C319.4,50.6,318.9,48.4,317.8,46.3z"/>
		<path class="st2" d="M349.5,69.2L339,51v18.2h-8V37.9h8l10.4,18.2V37.9h8v31.3H349.5z"/>
		<g class="st5">
			<path d="M148.3,73.5h3l2.1,4.9l2.1-4.9h3v9.1h-2.2v-6.7l-2.1,4.9h-1.5l-2.1-4.9v6.7h-2.2V73.5z"/>
			<path d="M166.2,81h-3.7l-0.6,1.7h-2.4l3.4-9.1h2.8l3.4,9.1h-2.4L166.2,81z M163.2,79.3h2.5l-1.2-3.6L163.2,79.3z"/>
			<path d="M172.7,79.2v3.4h-2.3v-9.1h3.6c1.2,0,2.1,0.2,2.6,0.6c0.6,0.4,0.8,1,0.8,1.9c0,0.6-0.1,1.1-0.4,1.5s-0.7,0.7-1.3,0.9
				c0.3,0.1,0.6,0.2,0.9,0.5c0.3,0.3,0.5,0.7,0.8,1.2l1.3,2.6h-2.5l-1.1-2.3c-0.2-0.5-0.5-0.8-0.7-0.9c-0.2-0.2-0.5-0.2-0.9-0.2
				H172.7z M173.7,77.5c0.5,0,0.8-0.1,1.1-0.3c0.2-0.2,0.3-0.5,0.3-0.9c0-0.4-0.1-0.7-0.3-0.9c-0.2-0.2-0.6-0.3-1.1-0.3h-1v2.3
				H173.7z"/>
			<path d="M180,73.5h2.3v9.1H180V73.5z"/>
			<path d="M183.6,73.5h8.4v1.8h-3v7.3h-2.3v-7.3h-3V73.5z"/>
			<path d="M193.2,73.5h2.3v9.1h-2.3V73.5z"/>
			<path d="M197.8,73.5h3l2.1,4.9l2.1-4.9h3v9.1h-2.2v-6.7l-2.1,4.9h-1.5l-2.1-4.9v6.7h-2.2V73.5z"/>
			<path d="M210.3,73.5h6.3v1.8h-4V77h3.8v1.8h-3.8v2.1h4.1v1.8h-6.5V73.5z"/>
			<path d="M223.2,73.5h2.3v9.1h-2.3V73.5z"/>
			<path d="M227.8,73.5h2.6l3.3,6.2v-6.2h2.2v9.1h-2.6l-3.3-6.2v6.2h-2.2V73.5z"/>
			<path d="M237.2,73.5h8.4v1.8h-3v7.3h-2.4v-7.3h-3V73.5z"/>
			<path d="M246.8,73.5h2.3v7.3h4.1v1.8h-6.5V73.5z"/>
			<path d="M262.7,84.3h-1.8c-0.6-1-1.1-2-1.4-2.9c-0.3-0.9-0.4-1.8-0.4-2.7c0-0.9,0.1-1.8,0.4-2.7c0.3-0.9,0.8-1.9,1.4-2.9h1.8
				c-0.5,1-0.9,1.9-1.2,2.8c-0.3,0.9-0.4,1.8-0.4,2.7c0,0.9,0.1,1.8,0.4,2.7S262.2,83.3,262.7,84.3z"/>
			<path d="M269,73.3c1.5,0,2.6,0.4,3.4,1.3c0.8,0.8,1.2,2,1.2,3.5c0,1.5-0.4,2.6-1.2,3.5c-0.8,0.8-2,1.3-3.4,1.3
				c-1.5,0-2.6-0.4-3.4-1.3c-0.8-0.8-1.2-2-1.2-3.5c0-1.5,0.4-2.6,1.2-3.5C266.4,73.8,267.5,73.3,269,73.3z M269,75
				c-0.7,0-1.3,0.3-1.7,0.8c-0.4,0.5-0.6,1.3-0.6,2.2c0,1,0.2,1.7,0.6,2.2c0.4,0.5,1,0.8,1.7,0.8c0.7,0,1.3-0.3,1.7-0.8
				s0.6-1.3,0.6-2.2c0-1-0.2-1.7-0.6-2.2S269.7,75,269,75z"/>
			<path d="M275.5,73.5h3.9c1.2,0,2,0.3,2.7,0.8c0.6,0.5,0.9,1.2,0.9,2.2c0,1-0.3,1.7-0.9,2.2c-0.6,0.5-1.5,0.8-2.7,0.8h-1.6v3.2
				h-2.3V73.5z M277.8,75.2v2.5h1.3c0.5,0,0.8-0.1,1.1-0.3c0.2-0.2,0.4-0.5,0.4-0.9s-0.1-0.7-0.4-0.9c-0.2-0.2-0.6-0.3-1.1-0.3
				H277.8z"/>
			<path d="M291.9,82.1c-0.4,0.2-0.9,0.4-1.3,0.5c-0.5,0.1-1,0.2-1.5,0.2c-1.5,0-2.7-0.4-3.6-1.3c-0.9-0.8-1.3-2-1.3-3.5
				c0-1.5,0.4-2.6,1.3-3.5c0.9-0.8,2.1-1.3,3.6-1.3c0.5,0,1,0.1,1.5,0.2c0.5,0.1,0.9,0.3,1.3,0.5v1.9c-0.4-0.3-0.9-0.5-1.3-0.7
				s-0.9-0.2-1.3-0.2c-0.8,0-1.5,0.3-2,0.8c-0.5,0.5-0.7,1.3-0.7,2.2c0,0.9,0.2,1.7,0.7,2.2c0.5,0.5,1.1,0.8,2,0.8
				c0.5,0,0.9-0.1,1.3-0.2s0.9-0.4,1.3-0.7V82.1z"/>
			<path d="M293.7,84.3c0.5-1,0.9-1.9,1.2-2.8c0.3-0.9,0.4-1.8,0.4-2.7c0-0.9-0.1-1.8-0.4-2.7c-0.3-0.9-0.7-1.9-1.2-2.8h1.8
				c0.6,1,1.1,2,1.4,2.9c0.3,0.9,0.4,1.8,0.4,2.7c0,0.9-0.1,1.8-0.4,2.7c-0.3,0.9-0.8,1.9-1.4,2.9H293.7z"/>
			<path d="M303.9,73.5h3.9c1.2,0,2,0.3,2.7,0.8c0.6,0.5,0.9,1.2,0.9,2.2c0,1-0.3,1.7-0.9,2.2c-0.6,0.5-1.5,0.8-2.7,0.8h-1.6v3.2
				h-2.3V73.5z M306.2,75.2v2.5h1.3c0.5,0,0.8-0.1,1.1-0.3c0.2-0.2,0.4-0.5,0.4-0.9s-0.1-0.7-0.4-0.9c-0.2-0.2-0.6-0.3-1.1-0.3
				H306.2z"/>
			<path d="M311.9,73.5h2.4l2.4,6.7l2.4-6.7h2.4l-3.4,9.1h-2.8L311.9,73.5z"/>
			<path d="M321.6,73.5h8.4v1.8h-3v7.3h-2.3v-7.3h-3V73.5z"/>
			<path d="M335.6,73.5h2.3v7.3h4.1v1.8h-6.5V73.5z"/>
			<path d="M340.4,73.5h8.4v1.8h-3v7.3h-2.3v-7.3h-3V73.5z"/>
			<path d="M350,73.5h2.5c1.4,0,2.4,0.1,3.1,0.3s1.3,0.5,1.7,1c0.4,0.4,0.7,0.9,1,1.4c0.2,0.5,0.3,1.1,0.3,1.8
				c0,0.7-0.1,1.3-0.3,1.8c-0.2,0.5-0.5,1-1,1.4c-0.5,0.5-1.1,0.8-1.8,1s-1.7,0.3-3.1,0.3H350V73.5z M352.4,75.3v5.6h0.8
				c1,0,1.7-0.2,2.2-0.7c0.5-0.5,0.8-1.2,0.8-2.1c0-0.9-0.3-1.6-0.8-2.1c-0.5-0.5-1.2-0.7-2.2-0.7H352.4z"/>
		</g>
	</g>
</g>
</svg>
