<svg width="196" height="40" viewBox="0 0 196 40" fill="none" xmlns="http://www.w3.org/2000/svg">
<path d="M32.5566 14.2559L32.6155 14.3148V14.2559H32.5566Z" fill="#EEAA1F"/>
<path d="M27.7891 23.8588L22.9631 21.2078V23.2696V32.224L17.8429 35.0517L12.6638 37.8794V26.5686L17.8429 23.682L22.7866 20.9721L22.9631 20.8543L27.7302 18.2034L32.615 15.4935V14.3153L12.7815 25.4493L12.8992 14.0796L12.7815 2.65104L22.7866 8.48316L27.7302 11.3698L32.615 14.2564V0.530273H3.89474V3.18124H1.1875L1.42291 36.7601H3.89474V39.47H32.615V26.5097L27.7891 23.8588Z" fill="#EEAA1F"/>
<path d="M33.2627 14.3148L33.3804 14.2559H33.2627V14.3148Z" fill="#2C398F"/>
<path d="M61.983 3.18124V0.530273H33.2627V14.2564L43.0323 8.42425L53.0962 2.59213V2.65104L52.9785 14.0207L53.0962 25.3904V25.5082L33.2627 14.3153V15.5524L37.9121 18.1445L42.7969 20.7954V20.8543L47.9171 23.682L53.0373 26.5097V26.5686V37.8205V37.8794L47.9171 35.0517L42.7969 32.224V32.1651V21.2078L37.9121 23.8588L33.2627 26.3919V39.4111H61.983V36.7601V36.7012H64.6313V3.24015H61.983V3.18124Z" fill="#2C398F"/>
<path d="M32.6148 0.529876H33.2622V0.470966H61.9824V0.0585938H33.2622H32.6148H3.89453V0.529876H32.6148Z" fill="#2E6D8D"/>
<path d="M61.983 0.47168H33.2627V0.530589H61.983V0.47168Z" fill="#2E6D8D"/>
<path d="M1.18788 3.18164H0.658203V36.7605H1.42329L1.18788 3.18164Z" fill="#2E6D8D"/>
<path d="M33.2622 39.4697H32.6148H3.89453V39.9999H33.2622H61.9824V39.4697H33.2622Z" fill="#2E6D8D"/>
<path d="M64.6309 3.24023V36.7013V36.7602H65.1605V3.24023H64.6309Z" fill="#2E6D8D"/>
<path d="M32.7923 15.375L32.6158 15.4928L27.731 18.2027L22.9639 20.8537V21.2071L27.7898 23.8581L32.6158 26.509L32.7923 26.6269V15.375Z" fill="white"/>
<path d="M22.7878 20.9723L17.8441 23.6822L12.665 26.5688V37.8796L17.8441 35.0519L22.9643 32.2242V23.2698V21.208V20.8545L22.7878 20.9723Z" fill="white"/>
<path d="M42.7969 20.9131V21.1487V21.2076V32.165L47.9171 34.9927L53.0373 37.8203V26.5685L47.9171 23.7408L42.7969 20.9131Z" fill="white"/>
<path d="M42.7969 32.165V32.2239L47.9171 35.0516L53.0373 37.8793V37.8204L47.9171 34.9927L42.7969 32.165Z" fill="white"/>
<path d="M37.9122 23.7992L42.797 21.1482V20.9126L37.9122 18.2027L33.2628 15.6106L32.8508 15.375H32.792V26.6269H32.8508L33.2628 26.3912V26.3323L37.9122 23.7992Z" fill="white"/>
<path d="M37.9121 23.7994L33.2627 26.3325V26.3915L37.9121 23.8583L42.7969 21.2073V21.1484L37.9121 23.7994Z" fill="white"/>
<path d="M33.3799 14.2557L53.1545 25.3309L53.0368 14.0201V13.9612L53.1545 2.65039L43.1495 8.48251L33.3799 14.2557Z" fill="white"/>
<path d="M33.2627 14.3148L53.0962 25.5077V25.3899L33.3804 14.2559L33.2627 14.3148Z" fill="white"/>
<path d="M52.9785 14.0201L53.0962 2.65039L52.9785 14.0201Z" fill="white"/>
<path d="M27.7306 11.3691L22.8458 8.48251L12.8408 2.65039L12.9585 14.0201L12.8408 25.3898L32.6743 14.1968L27.7306 11.3691Z" fill="white"/>
<path d="M32.6153 14.2567L27.7305 11.3701L32.5564 14.2567H32.6153Z" fill="white"/>
<path d="M3.89486 3.18116V0.530192V0H0.716797V3.18116H1.24647H3.89486ZM1.48189 1.88513V1.35494C1.48189 1.00148 1.77615 0.648013 2.12927 0.589103H2.30583H2.48239C2.83551 0.648013 3.12977 1.00148 3.12977 1.35494V1.88513C3.12977 2.2975 2.77665 2.70987 2.30583 2.70987C1.835 2.65096 1.48189 2.2975 1.48189 1.88513Z" fill="black"/>
<path d="M3.07173 1.3547V1.88489C3.07173 2.29727 2.71861 2.65073 2.30664 2.70964C2.71861 2.70964 3.13058 2.35618 3.13058 1.88489L3.07173 1.3547C3.07173 1.00124 2.83632 0.647777 2.4832 0.588867C2.83632 0.647777 3.07173 0.94233 3.07173 1.3547Z" fill="black"/>
<path d="M61.9834 0.530192V3.12225H64.6318V3.18116H65.1615V0H61.9834V0.530192ZM62.8073 1.88513V1.35494C62.8073 1.29603 62.8073 1.23712 62.8073 1.23712C62.8662 0.883655 63.2193 0.589103 63.5724 0.589103C63.9844 0.589103 64.3375 0.942565 64.3375 1.35494V1.88513V1.94404V2.00295V2.06186V2.12077C64.3375 2.12077 64.3375 2.17968 64.2787 2.17968C64.2787 2.17968 64.2787 2.23859 64.2198 2.23859L64.161 2.2975C64.161 2.2975 64.161 2.35641 64.1021 2.35641L64.0433 2.41532L63.9844 2.47423C63.9844 2.47423 63.9255 2.47423 63.9255 2.53314C63.9255 2.53314 63.8667 2.53314 63.8667 2.59205H63.8078H63.749H63.6901H63.6313H63.5724H63.5136H63.4547H63.3959C63.3959 2.59205 63.337 2.59205 63.337 2.53314C63.337 2.53314 63.2782 2.53314 63.2782 2.47423C63.2782 2.47423 63.2193 2.47423 63.2193 2.41532L63.1605 2.35641C63.1605 2.35641 63.1605 2.2975 63.1016 2.2975L63.0428 2.23859C63.0428 2.23859 63.0428 2.17968 62.9839 2.17968C62.9839 2.17968 62.9839 2.12077 62.9251 2.12077V2.06186V2.00295V1.94404C62.8073 1.94404 62.8073 1.94404 62.8073 1.88513Z" fill="black"/>
<path d="M62.9241 2.35676C62.9241 2.35676 62.9241 2.29785 62.8652 2.29785C62.9241 2.29785 62.9241 2.29785 62.9241 2.35676Z" fill="black"/>
<path d="M63.2776 2.65071C63.2776 2.65071 63.2188 2.65071 63.2188 2.5918C63.2188 2.5918 63.2776 2.5918 63.2776 2.65071Z" fill="black"/>
<path d="M64.0432 2.5332C64.0432 2.5332 63.9844 2.5332 63.9844 2.59211C63.9844 2.59211 64.0432 2.59211 64.0432 2.5332Z" fill="black"/>
<path d="M63.5717 0.588867C63.9837 0.588867 64.3368 0.94233 64.3957 1.3547C64.3957 0.94233 64.0426 0.588867 63.5717 0.588867C63.2186 0.588867 62.8655 0.883419 62.8066 1.23688C62.8655 0.824509 63.2186 0.588867 63.5717 0.588867Z" fill="black"/>
<path d="M64.3372 2.17969C64.3372 2.17969 64.3372 2.2386 64.2783 2.2386C64.2783 2.2386 64.3372 2.2386 64.3372 2.17969Z" fill="black"/>
<path d="M64.3963 2.0625V2.12141C64.3374 2.12141 64.3963 2.0625 64.3963 2.0625Z" fill="black"/>
<path d="M64.1604 2.47461L64.1016 2.53352C64.1016 2.47461 64.1604 2.47461 64.1604 2.47461Z" fill="black"/>
<path d="M64.2786 2.35645L64.2197 2.41536C64.2197 2.35645 64.2197 2.35645 64.2786 2.35645Z" fill="black"/>
<path d="M64.6318 3.18164H61.9834V3.24055H64.6318V3.18164Z" fill="black"/>
<path d="M61.9834 36.7598V39.4107V39.4696V39.9998H65.1615V36.8187H64.6318L61.9834 36.7598ZM64.3964 38.1147V38.6449C64.3964 39.0573 64.0433 39.4696 63.5724 39.4696H63.5136C63.4547 39.4696 63.3959 39.4696 63.337 39.4107C63.2782 39.4107 63.2782 39.4107 63.2193 39.3518C63.1605 39.2929 63.1016 39.2929 63.0428 39.234L62.9839 39.1751C62.925 39.1162 62.8662 39.0573 62.8662 38.9984C62.8662 38.9984 62.8662 38.9984 62.8662 38.9394C62.8073 38.8216 62.8073 38.7627 62.8073 38.6449V38.1147V38.0558V37.9969V37.938V37.8791C62.8073 37.8791 62.8073 37.8201 62.8662 37.8201C62.8662 37.8201 62.8662 37.7612 62.9251 37.7612L62.9839 37.7023L63.0428 37.6434L63.1016 37.5845L63.1605 37.5256C63.1605 37.5256 63.2193 37.5256 63.2193 37.4667C63.2193 37.4667 63.2782 37.4667 63.2782 37.4078H63.337H63.3959H63.4547H63.5136H63.5724H63.6313H63.6901H63.749C63.749 37.4078 63.8078 37.4078 63.8078 37.4667C63.8078 37.4667 63.8667 37.4667 63.8667 37.5256C63.8667 37.5256 63.9255 37.5256 63.9255 37.5845L63.9844 37.6434C63.9844 37.6434 63.9844 37.7023 64.0433 37.7023L64.1021 37.7612C64.1021 37.7612 64.1021 37.8201 64.161 37.8201C64.161 37.8201 64.161 37.8791 64.2198 37.8791V37.938V37.9969V38.0558C64.3964 38.0558 64.3964 38.0558 64.3964 38.1147Z" fill="black"/>
<path d="M63.1602 37.4661C63.1602 37.4661 63.219 37.4661 63.219 37.4072L63.1602 37.4661Z" fill="black"/>
<path d="M62.9829 39.1748C62.9241 39.1159 62.8652 39.057 62.8652 38.998C62.9241 39.057 62.9241 39.1159 62.9829 39.1748Z" fill="black"/>
<path d="M63.9248 37.3496C63.9248 37.3496 63.9837 37.3496 63.9837 37.4085C63.9248 37.4085 63.9248 37.4085 63.9248 37.3496Z" fill="black"/>
<path d="M62.8652 37.8206C62.8652 37.8206 62.8652 37.7617 62.9241 37.7617C62.8652 37.7617 62.8652 37.7617 62.8652 37.8206Z" fill="black"/>
<path d="M64.2783 37.6436C64.2783 37.6436 64.2783 37.7025 64.3372 37.7025C64.2783 37.7025 64.2783 37.7025 64.2783 37.6436Z" fill="black"/>
<path d="M63.5713 37.29H63.6301C63.6301 37.3489 63.6301 37.29 63.5713 37.29Z" fill="black"/>
<path d="M3.89512 36.7598H1.42329H0.658203V39.9409H3.83627V39.4107L3.89512 36.7598ZM3.07118 38.1147V38.6449C3.07118 39.0573 2.71806 39.4696 2.24723 39.4696H2.18838C2.12953 39.4696 2.01182 39.4696 1.95297 39.4107C1.6587 39.2929 1.48215 38.9984 1.48215 38.7038V38.1147C1.48215 37.7023 1.83526 37.29 2.30609 37.29C2.71806 37.29 3.07118 37.6434 3.07118 38.1147Z" fill="black"/>
<path d="M1.4817 38.645V38.1148C1.4817 37.7024 1.83482 37.3489 2.24679 37.29C1.83482 37.29 1.42285 37.6435 1.42285 38.1148L1.4817 38.645Z" fill="black"/>
<path d="M2.24713 39.4105C2.18828 39.4105 2.07057 39.4105 2.01172 39.3516C2.07057 39.4105 2.12942 39.4105 2.24713 39.4105Z" fill="black"/>
<path d="M92.1741 25.5083H87.4658V22.0326L87.9367 12.6658L83.6992 25.5083H80.6389L76.4015 12.6658L76.8723 22.0326V25.5083H72.1641V7.06934H78.4025L82.2279 19.3227L86.0534 7.06934H92.2918L92.1741 25.5083Z" fill="#2C398F"/>
<path d="M105.358 22.4449H99.4134L98.4718 25.5083H93.3516L100.061 7.06934H104.534L111.302 25.5083H106.182L105.358 22.4449ZM104.181 18.6158L102.356 12.7836L100.59 18.6158H104.181Z" fill="#2C398F"/>
<path d="M123.071 22.4449H117.127L116.186 25.5083H111.065L117.892 7.06934H122.365L129.133 25.5083H124.013L123.071 22.4449ZM121.894 18.6158L120.07 12.7836L118.304 18.6158H121.894Z" fill="#2C398F"/>
<path d="M143.317 10.8985H137.844V25.5083H133.136V10.8985H127.78V7.06934H143.376V10.8985H143.317Z" fill="#2C398F"/>
<path d="M147.966 16.7309C147.083 16.2596 146.377 15.6116 145.789 14.8458C145.2 14.021 144.906 13.0785 144.906 12.077C144.906 11.0755 145.2 10.0741 145.848 9.30822C146.554 8.48347 147.437 7.83546 148.437 7.482C149.614 7.06962 150.909 6.83398 152.145 6.83398C153.381 6.83398 154.617 7.06963 155.735 7.54091C156.735 7.95328 157.559 8.6602 158.207 9.54386C158.795 10.4864 159.148 11.5468 159.089 12.6661H154.381C154.381 12.1359 154.205 11.6057 153.793 11.1933C153.322 10.781 152.674 10.6042 152.027 10.6632C151.556 10.6632 151.144 10.7221 150.732 10.8988C150.438 11.0166 150.144 11.1933 149.908 11.4879C149.732 11.7235 149.614 11.9592 149.614 12.2537C149.673 12.7839 149.967 13.1963 150.438 13.4319C151.203 13.8443 152.027 14.1978 152.91 14.4923C154.617 14.9636 156.206 15.7884 157.5 16.9666C158.501 17.9091 159.089 19.2641 159.031 20.6779C159.031 21.6794 158.736 22.6809 158.207 23.5056C157.618 24.3303 156.794 24.9194 155.794 25.2729C154.617 25.6853 153.381 25.9209 152.145 25.862C150.85 25.862 149.555 25.6264 148.319 25.214C147.142 24.8016 146.142 24.0358 145.377 23.0932C144.612 22.0328 144.2 20.7368 144.258 19.4408H149.026C149.026 20.0299 149.084 20.5601 149.379 21.0903C149.614 21.5026 149.967 21.7972 150.379 21.915C150.909 22.0918 151.497 22.2096 152.086 22.1507C152.674 22.2096 153.263 22.0328 153.734 21.7383C154.087 21.5026 154.263 21.0903 154.263 20.6779C154.263 20.3834 154.205 20.0299 154.028 19.7353C153.793 19.4408 153.498 19.1462 153.145 19.0284C152.498 18.675 151.851 18.4393 151.144 18.2037C150.026 17.7324 148.967 17.2611 147.966 16.7309Z" fill="#2C398F"/>
<path d="M175.981 21.5023C175.334 22.7983 174.333 23.9176 173.097 24.6834C170.449 26.1562 167.271 26.1562 164.622 24.6834C163.386 23.9176 162.327 22.7983 161.68 21.5023C160.973 19.9706 160.62 18.3211 160.679 16.6716V16.0236C160.62 14.3741 160.973 12.6657 161.68 11.193C162.327 9.89692 163.328 8.77763 164.563 8.01179C167.212 6.53904 170.39 6.53904 173.038 8.01179C174.274 8.77763 175.334 9.89692 175.981 11.193C176.687 12.7246 177.04 14.3741 176.981 16.0236V16.6716C177.04 18.3211 176.687 19.9706 175.981 21.5023ZM171.332 12.0177C170.802 11.134 169.86 10.6038 168.86 10.6628C166.623 10.6628 165.505 12.4301 165.505 15.9058V16.6127C165.446 17.9676 165.741 19.3226 166.329 20.5008C167.153 21.8557 168.977 22.327 170.331 21.4433C170.743 21.2077 171.037 20.8542 171.273 20.5008C171.92 19.3226 172.214 17.9676 172.156 16.6127V15.9058C172.273 14.5508 171.979 13.2548 171.332 12.0177Z" fill="#2C398F"/>
<path d="M189.988 25.5083L183.809 14.7866V25.5083H179.101V7.06934H183.809L189.93 17.791V7.06934H194.638V25.5083H189.988Z" fill="#2C398F"/>
<path d="M71.5752 28.041H73.3408L74.5767 30.9276L75.8126 28.041H77.5782V33.4019H76.2834V29.4549L75.0475 32.3415H74.1647L72.9288 29.4549V33.4019H71.634V28.041H71.5752Z" fill="black"/>
<path d="M82.1092 32.459H79.9316L79.5785 33.4604H78.166L80.167 28.0996H81.8149L83.8159 33.4604H82.4034L82.1092 32.459ZM80.3436 31.4575H81.8149L81.1087 29.3367L80.3436 31.4575Z" fill="black"/>
<path d="M85.9357 31.3989V33.4019H84.582V28.041H86.7007C87.407 28.041 87.9367 28.1588 88.2309 28.3945C88.584 28.6301 88.7017 28.9836 88.7017 29.5138C88.7017 29.8672 88.6429 30.1618 88.4663 30.3974C88.2898 30.6331 88.0544 30.8098 87.7012 30.9276C87.8778 30.9865 88.0544 31.0454 88.2309 31.2222C88.4075 31.3989 88.5252 31.6345 88.7017 31.9291L89.4668 33.4608H87.9955L87.3481 32.1058C87.2304 31.8113 87.0539 31.6345 86.9362 31.5756C86.8184 31.4578 86.6419 31.4578 86.4065 31.4578H85.9357V31.3989ZM86.5242 30.3974C86.8184 30.3974 86.995 30.3385 87.1716 30.2207C87.2893 30.1029 87.3481 29.9261 87.3481 29.6905C87.3481 29.4549 87.2893 29.2781 87.1716 29.1603C87.0539 29.0425 86.8184 28.9836 86.5242 28.9836H85.9357V30.3385H86.5242V30.3974Z" fill="black"/>
<path d="M90.2314 28.041H91.5851V33.4019H90.2314V28.041Z" fill="black"/>
<path d="M92.3506 28.041H97.2942V29.1014H95.5286V33.4019H94.175V29.1014H92.4094V28.041H92.3506Z" fill="black"/>
<path d="M98 28.041H99.3536V33.4019H98V28.041Z" fill="black"/>
<path d="M100.707 28.041H102.473L103.709 30.9276L104.944 28.041H106.71V33.4019H105.415V29.4549L104.179 32.3415H103.297L102.061 29.4549V33.4019H100.766V28.041H100.707Z" fill="black"/>
<path d="M108.064 28.041H111.771V29.1014H109.417V30.1029H111.654V31.1633H109.417V32.4004H111.83V33.4608H108.005V28.041H108.064Z" fill="black"/>
<path d="M115.656 28.041H117.01V33.4019H115.656V28.041Z" fill="black"/>
<path d="M118.363 28.041H119.893L121.836 31.6935V28.041H123.13V33.4019H121.6L119.658 29.7494V33.4019H118.363V28.041Z" fill="black"/>
<path d="M123.896 28.041H128.839V29.1014H127.074V33.4019H125.661V29.1014H123.896V28.041Z" fill="black"/>
<path d="M129.545 28.041H130.899V32.3415H133.312V33.4019H129.486V28.041H129.545Z" fill="black"/>
<path d="M138.904 34.4036H137.845C137.491 33.8145 137.197 33.2254 137.021 32.6952C136.844 32.165 136.785 31.6348 136.785 31.1046C136.785 30.5744 136.844 30.0443 137.021 29.5141C137.197 28.9839 137.491 28.3948 137.845 27.8057H138.904C138.61 28.3948 138.374 28.925 138.198 29.4552C138.021 29.9853 137.962 30.5155 137.962 31.0457C137.962 31.5759 138.021 32.1061 138.198 32.6363C138.374 33.1665 138.61 33.8145 138.904 34.4036Z" fill="black"/>
<path d="M142.611 27.9238C143.493 27.9238 144.141 28.1595 144.612 28.6897C145.082 29.1609 145.318 29.8679 145.318 30.7515C145.318 31.6352 145.082 32.2832 144.612 32.8134C144.141 33.2847 143.435 33.5792 142.611 33.5792C141.728 33.5792 141.08 33.3436 140.61 32.8134C140.139 32.3421 139.903 31.6352 139.903 30.7515C139.903 29.8679 140.139 29.2199 140.61 28.6897C141.08 28.2184 141.728 27.9238 142.611 27.9238ZM142.611 28.9253C142.199 28.9253 141.845 29.102 141.61 29.3966C141.375 29.6911 141.257 30.1624 141.257 30.6926C141.257 31.2817 141.375 31.6941 141.61 31.9886C141.845 32.2832 142.199 32.4599 142.611 32.4599C143.023 32.4599 143.376 32.2832 143.611 31.9886C143.846 31.6941 143.964 31.2228 143.964 30.6926C143.964 30.1035 143.846 29.6911 143.611 29.3966C143.376 29.102 143.023 28.9253 142.611 28.9253Z" fill="black"/>
<path d="M146.437 28.041H148.732C149.438 28.041 149.909 28.2177 150.321 28.5123C150.674 28.8069 150.85 29.2192 150.85 29.8083C150.85 30.3974 150.674 30.8098 150.321 31.1043C149.968 31.3989 149.438 31.5756 148.732 31.5756H147.79V33.4608H146.437V28.041ZM147.79 29.0425V30.5152H148.555C148.849 30.5152 149.026 30.4563 149.203 30.3385C149.32 30.2207 149.438 30.044 149.438 29.8083C149.438 29.5727 149.379 29.396 149.203 29.2781C149.085 29.1603 148.849 29.1014 148.555 29.1014H147.79V29.0425Z" fill="black"/>
<path d="M156.088 33.1073C155.853 33.2251 155.559 33.3429 155.323 33.4018C155.029 33.4607 154.735 33.5197 154.44 33.5197C153.558 33.5197 152.851 33.284 152.322 32.7538C151.792 32.2825 151.557 31.5756 151.557 30.692C151.557 29.8083 151.792 29.1603 152.322 28.6301C152.851 28.1588 153.558 27.8643 154.44 27.8643C154.735 27.8643 155.029 27.9232 155.323 27.9821C155.617 28.041 155.853 28.1588 156.088 28.2766V29.3959C155.853 29.2192 155.559 29.1014 155.323 28.9836C155.088 28.8657 154.794 28.8657 154.558 28.8657C154.087 28.8657 153.675 29.0425 153.381 29.337C153.087 29.6316 152.969 30.1029 152.969 30.633C152.969 31.1632 153.087 31.6345 153.381 31.9291C153.675 32.2236 154.028 32.4004 154.558 32.4004C154.852 32.4004 155.088 32.3414 155.323 32.2825C155.559 32.2236 155.853 32.0469 156.088 31.8702V33.1073Z" fill="black"/>
<path d="M157.147 34.404C157.442 33.8149 157.677 33.2847 157.854 32.7545C158.03 32.2243 158.089 31.6941 158.089 31.1639C158.089 30.6337 158.03 30.1035 157.854 29.5733C157.677 29.0431 157.442 28.454 157.147 27.9238H158.207C158.56 28.5129 158.854 29.102 159.031 29.6322C159.207 30.1624 159.266 30.6926 159.266 31.2228C159.266 31.753 159.207 32.2832 159.031 32.8134C158.854 33.3436 158.56 33.9327 158.207 34.5218H157.147V34.404Z" fill="black"/>
<path d="M163.15 28.041H165.446C166.152 28.041 166.623 28.2177 167.035 28.5123C167.388 28.8069 167.564 29.2192 167.564 29.8083C167.564 30.3974 167.388 30.8098 167.035 31.1043C166.682 31.3989 166.152 31.5756 165.446 31.5756H164.504V33.4608H163.15V28.041ZM164.504 29.0425V30.5152H165.269C165.563 30.5152 165.74 30.4563 165.916 30.3385C166.034 30.2207 166.152 30.044 166.152 29.8083C166.152 29.5727 166.093 29.396 165.916 29.2781C165.799 29.1603 165.563 29.1014 165.269 29.1014H164.504V29.0425Z" fill="black"/>
<path d="M167.858 28.041H169.271L170.683 31.988L172.096 28.041H173.508L171.507 33.4019H169.859L167.858 28.041Z" fill="black"/>
<path d="M173.567 28.041H178.511V29.1014H176.745V33.4019H175.392V29.1014H173.626V28.041H173.567Z" fill="black"/>
<path d="M181.807 28.041H183.161V32.3415H185.573V33.4019H181.748V28.041H181.807Z" fill="black"/>
<path d="M184.632 28.041H189.575V29.1014H187.81V33.4019H186.456V29.1014H184.691V28.041H184.632Z" fill="black"/>
<path d="M190.281 28.041H191.753C192.577 28.041 193.165 28.0999 193.577 28.2177C193.989 28.3356 194.342 28.5123 194.578 28.8069C194.813 29.0425 194.989 29.337 195.166 29.6316C195.284 29.9261 195.343 30.2796 195.343 30.692C195.343 31.1044 195.284 31.4578 195.166 31.7524C195.048 32.0469 194.872 32.3415 194.578 32.5771C194.283 32.8717 193.93 33.0484 193.518 33.1662C193.106 33.284 192.518 33.3429 191.694 33.3429H190.281V28.041ZM191.694 29.1014V32.4004H192.165C192.753 32.4004 193.165 32.2826 193.459 31.988C193.754 31.6935 193.93 31.2811 193.93 30.7509C193.93 30.2207 193.754 29.8083 193.459 29.5138C193.165 29.2192 192.753 29.1014 192.165 29.1014H191.694Z" fill="black"/>
</svg>
